<svg xmlns="http://www.w3.org/2000/svg" width="216" height="180" version="1.0" viewBox="0 0 162 135"><defs><clipPath id="a"><path d="M.594 0h160.808v134.008H.594Zm0 0"/></clipPath><clipPath id="b"><path d="M80 30.277h45.852v73.703H80Zm0 0"/></clipPath><clipPath id="c"><path d="M36.516 30.277H81v73.703H36.516Zm0 0"/></clipPath></defs><g fill="#fff" clip-path="url(#a)"><path d="M.594 0h160.812v134.008H.594Zm0 0"/><path d="M.594 0h160.812v134.008H.594Zm0 0"/></g><g clip-path="url(#b)"><path d="M125.402 30.277h-11.695c-15.648 0-28.789 10.614-32.71 25.02l18.53 21.164-8.449.023c0 18.739 12.383 27.243 22.629 27.243 4.023-12.563-1.473-24.637-14.18-27.266 21.52 0 25.875-24.645 25.875-46.184Zm0 0"/></g><g clip-path="url(#c)"><path d="M36.594 30.277h11.695c15.648 0 28.785 10.614 32.707 25.02L62.465 76.46l8.453.023c0 18.739-12.387 27.243-22.629 27.243-4.027-12.563 1.473-24.637 14.176-27.266-21.516 0-25.871-24.637-25.871-46.184Zm0 0"/></g></svg>